GREETZ: UnDeaD - BadGirl2k9 - virusofsaten - foxyb - WICCYWOLF - lizzymwah1

VISIT http://www.seedboxworld.biz/ for all ur seedbox needs!

RELEASE NAME: Rampage.2009.DVDRip.XviD-SDTeam
RELEASED BY: UnDeaD & BadGirl2k9
SIZE: 339 MB

LANGUAGE: English
IMDb:  http://www.imdb.com/title/tt1337057/

PLOT: A man with a thirst for revenge builds a full 
body armor from Kevlar and goes on a killing spree.

SCREENS: 
http://i658.photobucket.com/albums/uu309/BadGirl2k9/screens/vlcsnap-2010-08-31-00h09m50s189.png 
http://i658.photobucket.com/albums/uu309/BadGirl2k9/screens/vlcsnap-2010-08-31-00h10m00s28.png 
http://i658.photobucket.com/albums/uu309/BadGirl2k9/screens/vlcsnap-2010-08-31-00h10m07s88.png

General
Format                           : AVI
Format/Info                      : Audio Video Interleave
File size                        : 339 MiB
Duration                         : 1h 22mn
Overall bit rate                 : 572 Kbps
Writing application              : MEncoder SVN-r22963
Writing library                  : MPlayer

Video
ID                               : 0
Format                           : MPEG-4 Visual
Format profile                   : Simple@L3
Format settings, BVOP            : No
Format settings, QPel            : No
Format settings, GMC             : No warppoints
Format settings, Matrix          : Default (H.263)
Codec ID                         : XVID
Codec ID/Hint                    : XviD
Duration                         : 1h 22mn
Bit rate                         : 496 Kbps
Width                            : 512 pixels
Height                           : 208 pixels
Display aspect ratio             : 2.462
Frame rate                       : 20.000 fps
Resolution                       : 8 bits
Colorimetry                      : 4:2:0
Scan type                        : Progressive
Bits/(Pixel*Frame)               : 0.233
Stream size                      : 294 MiB (87%)
Writing library                  : XviD 1.1.2 (UTC 2006-11-01)

Audio
ID                               : 1
Format                           : MPEG Audio
Format version                   : Version 1
Format profile                   : Layer 3
Codec ID                         : 55
Codec ID/Hint                    : MP3
Duration                         : 1h 22mn
Bit rate mode                    : Constant
Bit rate                         : 64.0 Kbps
Channel(s)                       : 2 channels
Sampling rate                    : 44.1 KHz
Stream size                      : 38.0 MiB (11%)
Alignment                        : Aligned on interleaves
Interleave, duration             : 26 ms (0.52 video frame)
Interleave, preload duration     : 522 ms

GROUP NOTE: Big thanks to seedboxworld.biz for the seedbox!
